<?xml version="1.0" standalone="no"?>
<!DOCTYPE svg PUBLIC "-//W3C//DTD SVG 20010904//EN"
 "http://www.w3.org/TR/2001/REC-SVG-20010904/DTD/svg10.dtd">
<svg version="1.0" xmlns="http://www.w3.org/2000/svg"
 width="544.000000pt" height="337.000000pt" viewBox="0 0 544.000000 337.000000"
 preserveAspectRatio="xMidYMid meet">

<g transform="translate(0.000000,337.000000) scale(0.100000,-0.100000)"
fill="#000000" stroke="none">
<path d="M1624 3329 c27 -98 13 -244 -32 -334 -65 -131 -131 -199 -392 -407
-253 -200 -329 -294 -338 -418 -10 -144 51 -252 270 -474 87 -88 161 -157 164
-153 7 7 -46 98 -140 237 -90 134 -116 199 -116 290 0 146 73 251 310 447 113
93 186 171 252 269 124 182 148 354 70 503 -30 58 -60 83 -48 40z"/>
<path d="M1945 2654 c-38 -14 -81 -29 -95 -33 -50 -17 -187 -83 -265 -129
-102 -59 -211 -167 -251 -247 -43 -88 -46 -190 -9 -283 15 -37 48 -95 73 -130
97 -131 102 -142 102 -202 0 -62 -27 -130 -67 -172 -35 -36 -18 -36 38 1 59
40 152 137 178 185 27 52 35 113 21 164 -6 23 -41 86 -77 139 -105 155 -121
219 -76 307 50 99 195 221 436 365 117 71 115 79 -8 35z"/>
<path d="M4160 2045 l0 -335 55 0 55 0 0 335 0 335 -55 0 -55 0 0 -335z"/>
<path d="M2481 2292 c-50 -25 -74 -63 -79 -124 -8 -102 34 -154 163 -203 83
-31 125 -67 125 -107 0 -49 -30 -68 -107 -68 -56 0 -77 6 -120 29 l-53 29 -9
-36 c-20 -76 -20 -75 39 -99 62 -25 185 -31 251 -12 82 25 131 118 110 209
-14 64 -45 96 -129 135 -42 20 -93 44 -112 53 -46 22 -61 63 -34 93 16 18 27
20 84 17 36 -2 80 -11 99 -21 27 -13 36 -14 42 -5 11 18 22 86 15 96 -20 33
-228 43 -285 14z"/>
<path d="M4875 2213 c-8 -63 -17 -77 -49 -81 -21 -3 -26 -8 -26 -33 0 -26 3
-29 30 -29 l30 0 0 -165 c0 -197 4 -205 94 -205 78 0 106 13 105 47 -1 44 -12
64 -29 53 -8 -5 -25 -10 -36 -10 -28 0 -34 31 -34 171 l0 109 40 0 c38 0 40 2
40 30 0 28 -2 30 -40 30 l-40 0 0 65 0 65 -39 0 -40 0 -6 -47z"/>
<path d="M2982 2119 c-118 -59 -147 -256 -53 -363 37 -42 90 -59 175 -54 50 3
94 11 115 22 31 16 33 21 28 53 -4 20 -8 38 -11 41 -3 2 -22 -3 -43 -13 -100
-48 -186 -16 -207 78 l-6 27 134 0 c130 0 134 1 140 23 20 77 -7 158 -65 189
-49 26 -151 25 -207 -3z m146 -75 c12 -8 22 -24 22 -35 0 -17 -7 -19 -75 -19
-76 0 -85 4 -62 32 30 38 79 48 115 22z"/>
<path d="M3472 2105 l-31 -34 -3 27 c-3 24 -8 27 -45 30 l-43 3 0 -210 0 -211
55 0 55 0 0 128 c0 101 4 134 18 162 16 33 19 35 68 34 l51 -1 12 45 c14 55 8
62 -60 62 -41 0 -51 -4 -77 -35z"/>
<path d="M4472 2119 c-118 -59 -147 -256 -53 -363 37 -42 90 -59 175 -54 50 3
94 11 115 22 31 16 33 21 28 53 -4 20 -8 38 -11 41 -3 2 -22 -3 -43 -13 -100
-48 -186 -16 -207 78 l-6 27 134 0 c130 0 134 1 140 23 20 77 -7 158 -65 189
-49 26 -151 25 -207 -3z m146 -75 c12 -8 22 -24 22 -35 0 -17 -7 -19 -75 -19
-76 0 -85 4 -62 32 30 38 79 48 115 22z"/>
<path d="M5173 2120 c-41 -25 -53 -48 -53 -107 0 -79 33 -109 142 -133 69 -16
95 -38 79 -69 -23 -41 -101 -39 -165 4 -39 27 -38 28 -55 -38 l-10 -38 45 -20
c58 -24 162 -26 211 -2 88 41 99 174 19 227 -14 9 -53 22 -86 30 -65 15 -90
30 -90 52 0 36 76 44 135 14 22 -11 42 -20 46 -20 10 0 31 82 22 90 -38 34
-190 41 -240 10z"/>
<path d="M3647 2088 c9 -24 47 -117 83 -208 l66 -165 69 0 68 0 78 190 c44
105 81 198 85 208 5 15 -2 17 -49 17 l-54 0 -58 -150 c-32 -83 -61 -153 -65
-155 -4 -2 -33 65 -65 150 l-57 155 -59 0 -59 0 17 -42z"/>
<path d="M2153 1560 c-45 -9 -93 -36 -93 -52 0 -6 8 -7 18 -3 9 5 44 10 77 12
73 5 132 -21 178 -79 34 -42 46 -116 29 -167 -34 -99 -150 -213 -300 -296
-107 -59 -92 -71 36 -27 194 67 333 165 387 273 30 58 34 152 9 205 -20 42
-85 101 -131 121 -44 18 -154 25 -210 13z"/>
<path d="M725 1521 c-121 -24 -217 -55 -306 -99 -62 -31 -74 -41 -74 -62 0
-78 272 -121 725 -115 416 5 711 48 853 125 43 23 76 44 74 46 -2 3 -24 0 -48
-5 -167 -37 -682 -81 -956 -81 -223 0 -413 27 -413 59 0 21 77 61 183 96 60
19 117 35 128 35 10 0 19 5 19 10 0 15 -82 11 -185 -9z"/>
<path d="M2958 1304 c-58 -31 -75 -122 -38 -199 l20 -42 -44 -44 c-94 -94 -81
-224 29 -286 62 -35 173 -32 248 5 l57 29 22 -24 c18 -19 31 -23 86 -23 l64 0
-61 66 c-47 50 -60 70 -55 86 9 30 7 110 -5 141 -10 25 -9 27 17 27 15 0 44 3
65 6 35 6 37 8 37 45 0 37 -1 38 -32 33 -18 -3 -78 -10 -133 -17 l-100 -12 -3
-33 c-3 -27 0 -32 18 -32 15 0 25 -11 36 -35 24 -59 16 -61 -37 -10 -91 89
-149 164 -149 194 0 53 48 67 109 30 18 -11 34 -19 35 -17 3 4 26 84 26 91 0
2 -18 12 -40 21 -50 20 -136 20 -172 0z m129 -386 l72 -72 -27 -18 c-17 -11
-46 -18 -80 -18 -68 0 -102 29 -102 88 0 40 30 92 53 92 6 0 44 -32 84 -72z"/>
<path d="M3710 1028 c0 -334 -2 -340 -72 -362 -14 -4 -15 -10 -6 -46 11 -41
12 -42 47 -36 68 11 122 71 140 157 6 28 11 164 11 314 l0 265 -60 0 -60 0 0
-292z"/>
<path d="M735 1148 c-92 -34 -148 -90 -131 -133 12 -31 138 -87 226 -100 329
-46 690 -24 1000 62 l55 15 -40 20 c-22 11 -56 30 -75 43 l-35 24 -115 -20
c-199 -33 -334 -42 -535 -36 -194 7 -294 19 -306 38 -3 6 -10 10 -15 9 -4 -2
-13 4 -18 13 -8 12 -5 24 12 47 24 32 22 34 -23 18z"/>
<path d="M4511 1149 c-13 -5 -36 -18 -52 -30 l-29 -20 0 20 c0 18 -6 21 -45
21 l-45 0 0 -325 0 -325 55 0 55 0 0 124 0 124 38 -14 c91 -32 191 -5 238 66
22 33 28 55 32 119 7 122 -26 197 -102 232 -44 20 -106 24 -145 8z m90 -89
c68 -37 68 -213 0 -250 -28 -15 -88 -12 -121 5 l-30 16 0 97 0 97 33 23 c34
23 86 29 118 12z"/>
<path d="M3983 1130 c-41 -25 -53 -48 -53 -107 0 -79 33 -109 142 -133 69 -16
95 -38 79 -69 -23 -41 -101 -39 -165 4 -39 27 -38 28 -55 -38 l-10 -38 45 -20
c58 -24 162 -26 211 -2 88 41 99 174 19 227 -14 9 -53 22 -86 30 -65 15 -90
30 -90 52 0 36 76 44 135 14 22 -11 42 -20 46 -20 10 0 31 82 22 90 -38 34
-190 41 -240 10z"/>
<path d="M790 779 c-174 -79 -88 -185 189 -234 168 -29 344 -29 531 1 72 11
270 71 303 91 5 3 -33 26 -85 50 l-93 45 -100 -17 c-261 -45 -705 -21 -705 38
0 6 7 19 17 29 22 25 2 24 -57 -3z"/>
<path d="M365 540 c-130 -34 -203 -68 -262 -124 -39 -35 -41 -55 -10 -84 35
-33 128 -57 307 -77 30 -4 84 -10 120 -15 211 -29 733 -40 1000 -20 364 26
696 103 803 184 50 38 58 68 26 102 -30 32 -42 30 -34 -6 5 -24 2 -34 -19 -53
-54 -50 -266 -95 -586 -124 -235 -21 -816 -24 -1005 -5 -233 24 -415 70 -415
105 0 18 24 39 33 30 4 -3 7 -2 7 4 0 17 88 50 182 69 48 10 84 22 82 26 -9
15 -158 7 -229 -12z"/>
<path d="M2485 340 c-24 -27 -142 -82 -230 -108 -111 -33 -195 -50 -368 -76
-254 -39 -462 -50 -812 -43 -278 6 -363 11 -515 33 -57 8 -44 -8 25 -29 142
-44 346 -63 710 -66 695 -5 1162 105 1219 287 9 27 -5 29 -29 2z"/>
</g>
</svg>
